<svg width="168" height="168" viewBox="0 0 168 168" fill="none" xmlns="http://www.w3.org/2000/svg">
<path d="M167.5 84C167.5 130.116 130.116 167.5 84 167.5C37.8842 167.5 0.5 130.116 0.5 84C0.5 37.8842 37.8842 0.5 84 0.5C130.116 0.5 167.5 37.8842 167.5 84ZM84 160.1C126.029 160.1 160.1 126.029 160.1 84C160.1 41.9711 126.029 7.89999 84 7.89999C41.9711 7.89999 7.9 41.9711 7.9 84C7.9 126.029 41.9711 160.1 84 160.1Z" fill="#7B1429" stroke="#9A9A9A"/>
<path d="M18.6601 100.846C17.2503 95.4021 16.5 89.6915 16.5 83.8046C16.5 61.6469 27.1309 41.9758 43.5658 29.6257L49.0701 37.0963L49.3671 37.4993L49.7697 37.2019C58.1392 31.019 68.0189 27.2105 78.3682 26.1773C88.7176 25.1442 99.1537 26.9246 108.577 31.3312L109.031 31.5432L109.242 31.0896L113.17 22.6669C125.942 28.7657 136.504 38.7596 143.321 51.1139L135.966 55.1036L135.527 55.3417L135.764 55.781C142.214 67.7018 144.354 81.4874 141.822 94.806C139.29 108.125 132.242 120.159 121.869 128.873L121.487 129.194L121.808 129.577L127.177 135.985C115.481 145.677 100.473 151.5 84.1058 151.5C75.1626 151.5 66.6261 149.761 58.8142 146.604L64.4212 132.973C70.5062 135.418 77.1497 136.763 84.1058 136.763C113.316 136.763 136.995 113.052 136.995 83.8046C136.995 54.5574 113.316 30.8467 84.1058 30.8467C54.8954 30.8467 31.2167 54.5574 31.2167 83.8046C31.2167 88.3709 31.794 92.8028 32.8797 97.031L18.6601 100.846Z" fill="#7B1429" stroke="#9A9A9A"/>
<path d="M123.05 84.5V84H122.55L111.733 84C111.466 69.1878 99.3759 57.2624 84.5 57.2624C69.4571 57.2624 57.2624 69.4571 57.2624 84.5C57.2624 99.3759 69.1878 111.466 84 111.733V122.55V123.05H84.5C89.5624 123.05 94.5752 122.053 99.2523 120.115C103.929 118.178 108.179 115.338 111.759 111.759C115.338 108.179 118.178 103.929 120.115 99.2523C122.053 94.5753 123.05 89.5624 123.05 84.5ZM127.5 84.5C127.5 108.248 108.248 127.5 84.5 127.5C60.7518 127.5 41.5 108.248 41.5 84.5C41.5 60.7518 60.7518 41.5 84.5 41.5C108.248 41.5 127.5 60.7518 127.5 84.5Z" fill="#7B1429" stroke="#9A9A9A"/>
<circle cx="84" cy="84" r="17.5" fill="#7B1429" stroke="#9A9A9A"/>
</svg>
